<svg id="_x31_px" height="512" viewBox="0 0 36 36" width="512" xmlns="http://www.w3.org/2000/svg"><path d="m8.377 31.833c6.917 0 11.667 3.583 15 3.583s10.333-1.916 10.333-17.249-9.417-17.584-13.083-17.584c-17.167 0-24.5 31.25-12.25 31.25z" fill="#efefef"/><path d="m7.503 33c-.077 0-.154-.006-.231-.018-.396-.061-.744-.272-.981-.596-.236-.323-.333-.719-.272-1.115s.272-.745.596-.981c.323-.237.723-.332 1.115-.273.396.061.744.272.981.596.236.323.333.719.272 1.115s-.272.745-.596.981c-.26.191-.568.291-.884.291zm-.004-2c-.105 0-.208.033-.295.097-.107.079-.178.195-.198.327-.021.132.012.264.091.372.079.107.195.178.327.198s.264-.012.372-.091c.107-.079.178-.195.198-.327.021-.132-.012-.264-.091-.372-.079-.107-.195-.178-.327-.198-.025-.004-.052-.006-.077-.006z" fill="#a4afc1"/><path d="m7.5 23.5h17v-15c0-1.105-.895-2-2-2h-6-7c-1.105 0-2 .895-2 2z" fill="#f3f3f1"/><path d="m18.5 25.5h6v-4h-15c-1.105 0-2 .895-2 2 0 1.105.895 2 2 2h4z" fill="#2fdf84"/><path d="m13.5 23.5v6l2.5-2 2.5 2v-6z" fill="#f3f3f1"/><circle cx="22.5" cy="12.5" fill="#2fdf84" r="6"/><path d="m18.5 12.5c0-2.972 2.163-5.433 5-5.91-.326-.055-.659-.09-1-.09-3.314 0-6 2.686-6 6s2.686 6 6 6c.341 0 .674-.035 1-.09-2.837-.477-5-2.938-5-5.91z" fill="#00b871"/><path d="m11.5 6.5h-2c-1.105 0-2 .895-2 2v15h2v-15c0-1.105.895-2 2-2z" fill="#d5dbe1"/><path d="m9.5 23.5c0-1.105.895-2 2-2h-2c-1.105 0-2 .895-2 2s.895 2 2 2h2c-1.105 0-2-.895-2-2z" fill="#00b871"/><path d="m15.5 23.5h-2v6l2-1.6z" fill="#d5dbe1"/><path d="m22.5 19c-3.584 0-6.5-2.916-6.5-6.5s2.916-6.5 6.5-6.5 6.5 2.916 6.5 6.5-2.916 6.5-6.5 6.5zm0-12c-3.032 0-5.5 2.467-5.5 5.5s2.468 5.5 5.5 5.5 5.5-2.467 5.5-5.5-2.468-5.5-5.5-5.5z"/><path d="m20 6.85h1v11.3h-1z"/><path d="m24 6.85h1v11.3h-1z"/><path d="m16.85 10h11.301v1h-11.301z"/><path d="m16.85 14h11.301v1h-11.301z"/><path d="m7.5 24c-.276 0-.5-.224-.5-.5v-15c0-1.378 1.121-2.5 2.5-2.5h6c.276 0 .5.224.5.5s-.224.5-.5.5h-6c-.827 0-1.5.673-1.5 1.5v15c0 .276-.224.5-.5.5z"/><path d="m24.5 26h-6c-.276 0-.5-.224-.5-.5s.224-.5.5-.5h5.5v-3h-14.5c-.827 0-1.5.673-1.5 1.5s.673 1.5 1.5 1.5h4c.276 0 .5.224.5.5s-.224.5-.5.5h-4c-1.379 0-2.5-1.122-2.5-2.5s1.121-2.5 2.5-2.5h15c.276 0 .5.224.5.5v4c0 .276-.224.5-.5.5z"/><path d="m18.5 30c-.111 0-.222-.037-.313-.109l-2.187-1.751-2.188 1.75c-.151.119-.354.144-.529.06-.173-.083-.283-.258-.283-.45v-6c0-.276.224-.5.5-.5s.5.224.5.5v4.959l1.688-1.35c.184-.146.441-.146.625 0l1.687 1.35v-4.959c0-.276.224-.5.5-.5s.5.224.5.5v6c0 .192-.11.367-.283.451-.07.033-.144.049-.217.049z"/><path d="m20.5 24h-9c-.276 0-.5-.224-.5-.5s.224-.5.5-.5h9c.276 0 .5.224.5.5s-.224.5-.5.5z"/></svg>