<svg width="791" height="200" xmlns="http://www.w3.org/2000/svg">
 <!-- Created with Method Draw - http://github.com/duopixel/Method-Draw/ -->

 <g>
  <title>background</title>
  <rect fill="none" id="canvas_background" height="202" width="793" y="-1" x="-1"/>
  <g display="none" overflow="visible" y="0" x="0" height="100%" width="100%" id="canvasGrid">
   <rect fill="url(#gridpattern)" stroke-width="0" y="0" x="0" height="100%" width="100%"/>
  </g>
 </g>
 <g>
  <title>Layer 1</title>
  <g id="svg_25">
   <path stroke-width="0" id="svg_6" fill="#efefef" d="m53.53871,173.61125c38.42781,0 64.81672,19.90557 83.3334,19.90557s57.4056,-10.64445 57.4056,-95.82786s-52.31671,-97.68897 -72.68339,-97.68897c-95.3723,0 -136.11122,173.61125 -68.05561,173.61125z"/>
   <path stroke-width="0" id="svg_7" fill="#a4afc1" d="m48.68315,180.09459c-0.42778,0 -0.85556,-0.03333 -1.28333,-0.1c-2.2,-0.33889 -4.13334,-1.51111 -5.45,-3.31111c-1.31111,-1.79445 -1.85,-3.99445 -1.51111,-6.19445s1.51111,-4.13889 3.31111,-5.45c1.79445,-1.31667 4.01667,-1.84445 6.19445,-1.51667c2.2,0.33889 4.13334,1.51111 5.45,3.31111c1.31111,1.79445 1.85,3.99445 1.51111,6.19445s-1.51111,4.13889 -3.31111,5.45c-1.44445,1.06111 -3.15556,1.61667 -4.91112,1.61667zm-0.02222,-11.11112c-0.58333,0 -1.15556,0.18333 -1.63889,0.53889c-0.59444,0.43889 -0.98889,1.08333 -1.1,1.81667c-0.11667,0.73333 0.06667,1.46667 0.50556,2.06667c0.43889,0.59444 1.08333,0.98889 1.81667,1.1s1.46667,-0.06667 2.06667,-0.50556c0.59444,-0.43889 0.98889,-1.08333 1.1,-1.81667c0.11667,-0.73333 -0.06667,-1.46667 -0.50556,-2.06667c-0.43889,-0.59444 -1.08333,-0.98889 -1.81667,-1.1c-0.13889,-0.02222 -0.28889,-0.03333 -0.42778,-0.03333z"/>
   <path stroke-width="0" id="svg_8" fill="#f3f3f1" d="m48.66649,127.31677l94.44452,0l0,-83.3334c0,-6.13889 -4.97223,-11.11112 -11.11112,-11.11112l-33.33336,0l-38.88892,0c-6.13889,0 -11.11112,4.97223 -11.11112,11.11112l0,83.3334z"/>
   <path stroke-width="0" id="svg_9" fill="#2fdf84" d="m109.77765,138.42789l33.33336,0l0,-22.22224l-83.3334,0c-6.13889,0 -11.11112,4.97223 -11.11112,11.11112c0,6.13889 4.97223,11.11112 11.11112,11.11112l22.22224,0l27.7778,0z"/>
   <path stroke-width="0" id="svg_10" fill="#f3f3f1" d="m81.99985,127.31677l0,33.33336l13.8889,-11.11112l13.8889,11.11112l0,-33.33336l-27.7778,0z"/>
   <circle stroke-width="0" transform="matrix(5.55556, 0, 0, 5.55556, 0, 0)" id="svg_11" r="6" fill="#2fdf84" cy="11.917" cx="23.75996"/>
   <path stroke-width="0" id="svg_12" fill="#00b871" d="m109.77765,66.20561c0,-16.51112 12.01668,-30.18336 27.7778,-32.83336c-1.81111,-0.30556 -3.66111,-0.5 -5.55556,-0.5c-18.41113,0 -33.33336,14.92223 -33.33336,33.33336s14.92223,33.33336 33.33336,33.33336c1.89445,0 3.74445,-0.19444 5.55556,-0.5c-15.76112,-2.65 -27.7778,-16.32224 -27.7778,-32.83336z"/>
   <path stroke-width="0" id="svg_13" fill="#d5dbe1" d="m70.88873,32.87225l-11.11112,0c-6.13889,0 -11.11112,4.97223 -11.11112,11.11112l0,83.3334l11.11112,0l0,-83.3334c0,-6.13889 4.97223,-11.11112 11.11112,-11.11112z"/>
   <path stroke-width="0" id="svg_14" fill="#00b871" d="m59.77761,127.31677c0,-6.13889 4.97223,-11.11112 11.11112,-11.11112l-11.11112,0c-6.13889,0 -11.11112,4.97223 -11.11112,11.11112s4.97223,11.11112 11.11112,11.11112l11.11112,0c-6.13889,0 -11.11112,-4.97223 -11.11112,-11.11112z"/>
   <path stroke-width="0" id="svg_15" fill="#d5dbe1" d="m93.11097,127.31677l-11.11112,0l0,33.33336l11.11112,-8.8889l0,-24.44446z"/>
   <path stroke-width="0" id="svg_16" d="m131.99989,102.31675c-19.91113,0 -36.11114,-16.20001 -36.11114,-36.11114s16.20001,-36.11114 36.11114,-36.11114s36.11114,16.20001 36.11114,36.11114s-16.20001,36.11114 -36.11114,36.11114zm0,-66.66672c-16.84446,0 -30.55558,13.70557 -30.55558,30.55558s13.71112,30.55558 30.55558,30.55558s30.55558,-13.70557 30.55558,-30.55558s-13.71112,-30.55558 -30.55558,-30.55558z"/>
   <path stroke-width="0" id="svg_17" d="m118.11099,34.8167l5.55556,0l0,62.77783l-5.55556,0l0,-62.77783z"/>
   <path stroke-width="0" id="svg_18" d="m140.33323,34.8167l5.55556,0l0,62.77783l-5.55556,0l0,-62.77783z"/>
   <path stroke-width="0" id="svg_19" d="m100.61097,52.31671l62.78338,0l0,5.55556l-62.78338,0l0,-5.55556z"/>
   <path stroke-width="0" id="svg_20" d="m100.61097,74.53895l62.78338,0l0,5.55556l-62.78338,0l0,-5.55556z"/>
   <path stroke-width="0" id="svg_21" d="m48.66649,130.09455c-1.53333,0 -2.77778,-1.24445 -2.77778,-2.77778l0,-83.3334c0,-7.65556 6.22778,-13.8889 13.8889,-13.8889l33.33336,0c1.53333,0 2.77778,1.24445 2.77778,2.77778s-1.24445,2.77778 -2.77778,2.77778l-33.33336,0c-4.59445,0 -8.33334,3.73889 -8.33334,8.33334l0,83.3334c0,1.53333 -1.24445,2.77778 -2.77778,2.77778z"/>
   <path stroke-width="0" id="svg_22" d="m143.11101,141.20567l-33.33336,0c-1.53333,0 -2.77778,-1.24445 -2.77778,-2.77778s1.24445,-2.77778 2.77778,-2.77778l30.55558,0l0,-16.66668l-80.55562,0c-4.59445,0 -8.33334,3.73889 -8.33334,8.33334s3.73889,8.33334 8.33334,8.33334l22.22224,0c1.53333,0 2.77778,1.24445 2.77778,2.77778s-1.24445,2.77778 -2.77778,2.77778l-22.22224,0c-7.66112,0 -13.8889,-6.23334 -13.8889,-13.8889s6.22778,-13.8889 13.8889,-13.8889l83.3334,0c1.53333,0 2.77778,1.24445 2.77778,2.77778l0,22.22224c0,1.53333 -1.24445,2.77778 -2.77778,2.77778z"/>
   <path stroke-width="0" id="svg_23" d="m109.77765,163.42791c-0.61667,0 -1.23333,-0.20556 -1.73889,-0.60556l-12.15001,-9.72779l-12.15557,9.72223c-0.83889,0.66111 -1.96667,0.8 -2.93889,0.33333c-0.96111,-0.46111 -1.57222,-1.43333 -1.57222,-2.5l0,-33.33336c0,-1.53333 1.24445,-2.77778 2.77778,-2.77778s2.77778,1.24445 2.77778,2.77778l0,27.55002l9.37779,-7.50001c1.02222,-0.81111 2.45,-0.81111 3.47223,0l9.37223,7.50001l0,-27.55002c0,-1.53333 1.24445,-2.77778 2.77778,-2.77778s2.77778,1.24445 2.77778,2.77778l0,33.33336c0,1.06667 -0.61111,2.03889 -1.57222,2.50556c-0.38889,0.18333 -0.8,0.27222 -1.20556,0.27222z"/>
   <path stroke-width="0" id="svg_24" d="m120.88877,130.09455l-50.00004,0c-1.53333,0 -2.77778,-1.24445 -2.77778,-2.77778s1.24445,-2.77778 2.77778,-2.77778l50.00004,0c1.53333,0 2.77778,1.24445 2.77778,2.77778s-1.24445,2.77778 -2.77778,2.77778z"/>
  </g>
  <text transform="matrix(1, 0, 0, 1, 0, 0)" font-style="normal" font-weight="bold" xml:space="preserve" text-anchor="start" font-family="'Simonetta', serif" font-size="156" id="svg_27" y="151" x="190.86664" stroke-width="6" fill="#00b871">Manthan</text>
 </g>
</svg>